<?xml version="1.0" encoding="utf-8" standalone="no"?>
<!DOCTYPE svg PUBLIC "-//W3C//DTD SVG 1.1//EN"
  "http://www.w3.org/Graphics/SVG/1.1/DTD/svg11.dtd">
<!-- Created with matplotlib (https://matplotlib.org/) -->
<svg height="576pt" version="1.1" viewBox="0 0 576 576" width="576pt" xmlns="http://www.w3.org/2000/svg" xmlns:xlink="http://www.w3.org/1999/xlink">
 <defs>
  <style type="text/css">
*{stroke-linecap:butt;stroke-linejoin:round;}
  </style>
 </defs>
 <g id="figure_1">
  <g id="patch_1">
   <path d="M 0 576 
L 576 576 
L 576 0 
L 0 0 
z
" style="fill:#ffffff;"/>
  </g>
  <g id="axes_1">
   <g id="patch_2">
    <path d="M 72 504 
L 518.4 504 
L 518.4 69.12 
L 72 69.12 
z
" style="fill:#ffffff;"/>
   </g>
   <g id="PolyCollection_1">
    <defs>
     <path d="M 92.290909 -213.591029 
L 92.290909 -72 
L 108.523636 -72 
L 108.523636 -72 
L 124.756364 -72 
L 124.756364 -72 
L 140.989091 -72 
L 140.989091 -72 
L 157.221818 -72 
L 157.221818 -72 
L 173.454545 -72 
L 173.454545 -72 
L 189.687273 -72 
L 189.687273 -72 
L 205.92 -72 
L 205.92 -72 
L 222.152727 -72 
L 222.152727 -72 
L 238.385455 -72 
L 238.385455 -72 
L 254.618182 -72 
L 254.618182 -72 
L 270.850909 -72 
L 270.850909 -72 
L 287.083636 -72 
L 287.083636 -72 
L 303.316364 -72 
L 303.316364 -72 
L 319.549091 -72 
L 319.549091 -72 
L 335.781818 -72 
L 335.781818 -72 
L 352.014545 -72 
L 352.014545 -72 
L 368.247273 -72 
L 368.247273 -72 
L 384.48 -72 
L 384.48 -72 
L 400.712727 -72 
L 400.712727 -72 
L 416.945455 -72 
L 416.945455 -72 
L 433.178182 -72 
L 433.178182 -72 
L 449.410909 -72 
L 449.410909 -72 
L 465.643636 -72 
L 465.643636 -72 
L 481.876364 -72 
L 481.876364 -72 
L 498.109091 -72 
L 498.109091 -72 
L 498.109091 -486.171429 
L 498.109091 -486.171429 
L 498.109091 -486.171429 
L 481.876364 -486.171429 
L 481.876364 -123.123549 
L 465.643636 -123.123549 
L 465.643636 -106.39649 
L 449.410909 -106.39649 
L 449.410909 -101.449049 
L 433.178182 -101.449049 
L 433.178182 -102.273623 
L 416.945455 -102.273623 
L 416.945455 -98.857533 
L 400.712727 -98.857533 
L 400.712727 -99.56431 
L 384.48 -99.56431 
L 384.48 -96.737201 
L 368.247273 -96.737201 
L 368.247273 -94.145685 
L 352.014545 -94.145685 
L 352.014545 -93.6745 
L 335.781818 -93.6745 
L 335.781818 -94.499074 
L 319.549091 -94.499074 
L 319.549091 -94.61687 
L 303.316364 -94.61687 
L 303.316364 -93.556704 
L 287.083636 -93.556704 
L 287.083636 -92.849927 
L 270.850909 -92.849927 
L 270.850909 -92.732131 
L 254.618182 -92.732131 
L 254.618182 -95.794832 
L 238.385455 -95.794832 
L 238.385455 -92.378742 
L 222.152727 -92.378742 
L 222.152727 -97.679571 
L 205.92 -97.679571 
L 205.92 -97.09059 
L 189.687273 -97.09059 
L 189.687273 -99.56431 
L 173.454545 -99.56431 
L 173.454545 -104.629547 
L 157.221818 -104.629547 
L 157.221818 -118.529498 
L 140.989091 -118.529498 
L 140.989091 -136.43452 
L 124.756364 -136.43452 
L 124.756364 -122.652365 
L 108.523636 -122.652365 
L 108.523636 -213.591029 
L 92.290909 -213.591029 
z
" id="m135c26f2c6" style="stroke:#d9454a;"/>
    </defs>
    <g clip-path="url(#pe78f748490)">
     <use style="fill:#d9454a;fill-opacity:0.5;stroke:#d9454a;" x="0" xlink:href="#m135c26f2c6" y="576"/>
    </g>
   </g>
   <g id="PolyCollection_2">
    <defs>
     <path d="M 93.379593 -101.602388 
L 93.379593 -72 
L 109.568773 -72 
L 109.568773 -72 
L 125.757953 -72 
L 125.757953 -72 
L 141.947133 -72 
L 141.947133 -72 
L 158.136313 -72 
L 158.136313 -72 
L 174.325493 -72 
L 174.325493 -72 
L 190.514673 -72 
L 190.514673 -72 
L 206.703853 -72 
L 206.703853 -72 
L 222.893033 -72 
L 222.893033 -72 
L 239.082213 -72 
L 239.082213 -72 
L 255.271392 -72 
L 255.271392 -72 
L 271.460572 -72 
L 271.460572 -72 
L 287.649752 -72 
L 287.649752 -72 
L 303.838932 -72 
L 303.838932 -72 
L 320.028112 -72 
L 320.028112 -72 
L 336.217292 -72 
L 336.217292 -72 
L 352.406472 -72 
L 352.406472 -72 
L 368.595652 -72 
L 368.595652 -72 
L 384.784832 -72 
L 384.784832 -72 
L 400.974012 -72 
L 400.974012 -72 
L 417.163191 -72 
L 417.163191 -72 
L 433.352371 -72 
L 433.352371 -72 
L 449.541551 -72 
L 449.541551 -72 
L 465.730731 -72 
L 465.730731 -72 
L 481.919911 -72 
L 481.919911 -72 
L 498.109091 -72 
L 498.109091 -72 
L 498.109091 -413.566019 
L 498.109091 -413.566019 
L 498.109091 -413.566019 
L 481.919911 -413.566019 
L 481.919911 -126.081286 
L 465.730731 -126.081286 
L 465.730731 -126.081286 
L 449.541551 -126.081286 
L 449.541551 -239.367349 
L 433.352371 -239.367349 
L 433.352371 -225.704709 
L 417.163191 -225.704709 
L 417.163191 -126.650563 
L 400.974012 -126.650563 
L 400.974012 -112.987922 
L 384.784832 -112.987922 
L 384.784832 -146.575248 
L 368.595652 -146.575248 
L 368.595652 -126.081286 
L 352.406472 -126.081286 
L 352.406472 -102.740942 
L 336.217292 -102.740942 
L 336.217292 -97.048175 
L 320.028112 -97.048175 
L 320.028112 -99.894558 
L 303.838932 -99.894558 
L 303.838932 -92.493961 
L 287.649752 -92.493961 
L 287.649752 -93.632515 
L 271.460572 -93.632515 
L 271.460572 -93.063238 
L 255.271392 -93.063238 
L 255.271392 -87.370471 
L 239.082213 -87.370471 
L 239.082213 -86.801194 
L 222.893033 -86.801194 
L 222.893033 -76.554214 
L 206.703853 -76.554214 
L 206.703853 -79.969874 
L 190.514673 -79.969874 
L 190.514673 -79.969874 
L 174.325493 -79.969874 
L 174.325493 -78.83132 
L 158.136313 -78.83132 
L 158.136313 -78.83132 
L 141.947133 -78.83132 
L 141.947133 -77.692767 
L 125.757953 -77.692767 
L 125.757953 -79.400597 
L 109.568773 -79.400597 
L 109.568773 -101.602388 
L 93.379593 -101.602388 
z
" id="m4ee88497bc" style="stroke:#3c96a0;"/>
    </defs>
    <g clip-path="url(#pe78f748490)">
     <use style="fill:#3c96a0;fill-opacity:0.5;stroke:#3c96a0;" x="0" xlink:href="#m4ee88497bc" y="576"/>
    </g>
   </g>
   <g id="matplotlib.axis_1">
    <g id="xtick_1">
     <g id="line2d_1">
      <defs>
       <path d="M 0 0 
L 0 3.5 
" id="m19630b5ac1" style="stroke:#000000;stroke-width:0.8;"/>
      </defs>
      <g>
       <use style="stroke:#000000;stroke-width:0.8;" x="92.290909" xlink:href="#m19630b5ac1" y="504"/>
      </g>
     </g>
     <g id="text_1">
      <!-- 0.0 -->
      <defs>
       <path d="M 31.78125 66.40625 
Q 24.171875 66.40625 20.328125 58.90625 
Q 16.5 51.421875 16.5 36.375 
Q 16.5 21.390625 20.328125 13.890625 
Q 24.171875 6.390625 31.78125 6.390625 
Q 39.453125 6.390625 43.28125 13.890625 
Q 47.125 21.390625 47.125 36.375 
Q 47.125 51.421875 43.28125 58.90625 
Q 39.453125 66.40625 31.78125 66.40625 
z
M 31.78125 74.21875 
Q 44.046875 74.21875 50.515625 64.515625 
Q 56.984375 54.828125 56.984375 36.375 
Q 56.984375 17.96875 50.515625 8.265625 
Q 44.046875 -1.421875 31.78125 -1.421875 
Q 19.53125 -1.421875 13.0625 8.265625 
Q 6.59375 17.96875 6.59375 36.375 
Q 6.59375 54.828125 13.0625 64.515625 
Q 19.53125 74.21875 31.78125 74.21875 
z
" id="DejaVuSans-48"/>
       <path d="M 10.6875 12.40625 
L 21 12.40625 
L 21 0 
L 10.6875 0 
z
" id="DejaVuSans-46"/>
      </defs>
      <g transform="translate(84.339347 518.598438)scale(0.1 -0.1)">
       <use xlink:href="#DejaVuSans-48"/>
       <use x="63.623047" xlink:href="#DejaVuSans-46"/>
       <use x="95.410156" xlink:href="#DejaVuSans-48"/>
      </g>
     </g>
    </g>
    <g id="xtick_2">
     <g id="line2d_2">
      <g>
       <use style="stroke:#000000;stroke-width:0.8;" x="173.454545" xlink:href="#m19630b5ac1" y="504"/>
      </g>
     </g>
     <g id="text_2">
      <!-- 0.2 -->
      <defs>
       <path d="M 19.1875 8.296875 
L 53.609375 8.296875 
L 53.609375 0 
L 7.328125 0 
L 7.328125 8.296875 
Q 12.9375 14.109375 22.625 23.890625 
Q 32.328125 33.6875 34.8125 36.53125 
Q 39.546875 41.84375 41.421875 45.53125 
Q 43.3125 49.21875 43.3125 52.78125 
Q 43.3125 58.59375 39.234375 62.25 
Q 35.15625 65.921875 28.609375 65.921875 
Q 23.96875 65.921875 18.8125 64.3125 
Q 13.671875 62.703125 7.8125 59.421875 
L 7.8125 69.390625 
Q 13.765625 71.78125 18.9375 73 
Q 24.125 74.21875 28.421875 74.21875 
Q 39.75 74.21875 46.484375 68.546875 
Q 53.21875 62.890625 53.21875 53.421875 
Q 53.21875 48.921875 51.53125 44.890625 
Q 49.859375 40.875 45.40625 35.40625 
Q 44.1875 33.984375 37.640625 27.21875 
Q 31.109375 20.453125 19.1875 8.296875 
z
" id="DejaVuSans-50"/>
      </defs>
      <g transform="translate(165.502983 518.598438)scale(0.1 -0.1)">
       <use xlink:href="#DejaVuSans-48"/>
       <use x="63.623047" xlink:href="#DejaVuSans-46"/>
       <use x="95.410156" xlink:href="#DejaVuSans-50"/>
      </g>
     </g>
    </g>
    <g id="xtick_3">
     <g id="line2d_3">
      <g>
       <use style="stroke:#000000;stroke-width:0.8;" x="254.618182" xlink:href="#m19630b5ac1" y="504"/>
      </g>
     </g>
     <g id="text_3">
      <!-- 0.4 -->
      <defs>
       <path d="M 37.796875 64.3125 
L 12.890625 25.390625 
L 37.796875 25.390625 
z
M 35.203125 72.90625 
L 47.609375 72.90625 
L 47.609375 25.390625 
L 58.015625 25.390625 
L 58.015625 17.1875 
L 47.609375 17.1875 
L 47.609375 0 
L 37.796875 0 
L 37.796875 17.1875 
L 4.890625 17.1875 
L 4.890625 26.703125 
z
" id="DejaVuSans-52"/>
      </defs>
      <g transform="translate(246.666619 518.598438)scale(0.1 -0.1)">
       <use xlink:href="#DejaVuSans-48"/>
       <use x="63.623047" xlink:href="#DejaVuSans-46"/>
       <use x="95.410156" xlink:href="#DejaVuSans-52"/>
      </g>
     </g>
    </g>
    <g id="xtick_4">
     <g id="line2d_4">
      <g>
       <use style="stroke:#000000;stroke-width:0.8;" x="335.781818" xlink:href="#m19630b5ac1" y="504"/>
      </g>
     </g>
     <g id="text_4">
      <!-- 0.6 -->
      <defs>
       <path d="M 33.015625 40.375 
Q 26.375 40.375 22.484375 35.828125 
Q 18.609375 31.296875 18.609375 23.390625 
Q 18.609375 15.53125 22.484375 10.953125 
Q 26.375 6.390625 33.015625 6.390625 
Q 39.65625 6.390625 43.53125 10.953125 
Q 47.40625 15.53125 47.40625 23.390625 
Q 47.40625 31.296875 43.53125 35.828125 
Q 39.65625 40.375 33.015625 40.375 
z
M 52.59375 71.296875 
L 52.59375 62.3125 
Q 48.875 64.0625 45.09375 64.984375 
Q 41.3125 65.921875 37.59375 65.921875 
Q 27.828125 65.921875 22.671875 59.328125 
Q 17.53125 52.734375 16.796875 39.40625 
Q 19.671875 43.65625 24.015625 45.921875 
Q 28.375 48.1875 33.59375 48.1875 
Q 44.578125 48.1875 50.953125 41.515625 
Q 57.328125 34.859375 57.328125 23.390625 
Q 57.328125 12.15625 50.6875 5.359375 
Q 44.046875 -1.421875 33.015625 -1.421875 
Q 20.359375 -1.421875 13.671875 8.265625 
Q 6.984375 17.96875 6.984375 36.375 
Q 6.984375 53.65625 15.1875 63.9375 
Q 23.390625 74.21875 37.203125 74.21875 
Q 40.921875 74.21875 44.703125 73.484375 
Q 48.484375 72.75 52.59375 71.296875 
z
" id="DejaVuSans-54"/>
      </defs>
      <g transform="translate(327.830256 518.598438)scale(0.1 -0.1)">
       <use xlink:href="#DejaVuSans-48"/>
       <use x="63.623047" xlink:href="#DejaVuSans-46"/>
       <use x="95.410156" xlink:href="#DejaVuSans-54"/>
      </g>
     </g>
    </g>
    <g id="xtick_5">
     <g id="line2d_5">
      <g>
       <use style="stroke:#000000;stroke-width:0.8;" x="416.945455" xlink:href="#m19630b5ac1" y="504"/>
      </g>
     </g>
     <g id="text_5">
      <!-- 0.8 -->
      <defs>
       <path d="M 31.78125 34.625 
Q 24.75 34.625 20.71875 30.859375 
Q 16.703125 27.09375 16.703125 20.515625 
Q 16.703125 13.921875 20.71875 10.15625 
Q 24.75 6.390625 31.78125 6.390625 
Q 38.8125 6.390625 42.859375 10.171875 
Q 46.921875 13.96875 46.921875 20.515625 
Q 46.921875 27.09375 42.890625 30.859375 
Q 38.875 34.625 31.78125 34.625 
z
M 21.921875 38.8125 
Q 15.578125 40.375 12.03125 44.71875 
Q 8.5 49.078125 8.5 55.328125 
Q 8.5 64.0625 14.71875 69.140625 
Q 20.953125 74.21875 31.78125 74.21875 
Q 42.671875 74.21875 48.875 69.140625 
Q 55.078125 64.0625 55.078125 55.328125 
Q 55.078125 49.078125 51.53125 44.71875 
Q 48 40.375 41.703125 38.8125 
Q 48.828125 37.15625 52.796875 32.3125 
Q 56.78125 27.484375 56.78125 20.515625 
Q 56.78125 9.90625 50.3125 4.234375 
Q 43.84375 -1.421875 31.78125 -1.421875 
Q 19.734375 -1.421875 13.25 4.234375 
Q 6.78125 9.90625 6.78125 20.515625 
Q 6.78125 27.484375 10.78125 32.3125 
Q 14.796875 37.15625 21.921875 38.8125 
z
M 18.3125 54.390625 
Q 18.3125 48.734375 21.84375 45.5625 
Q 25.390625 42.390625 31.78125 42.390625 
Q 38.140625 42.390625 41.71875 45.5625 
Q 45.3125 48.734375 45.3125 54.390625 
Q 45.3125 60.0625 41.71875 63.234375 
Q 38.140625 66.40625 31.78125 66.40625 
Q 25.390625 66.40625 21.84375 63.234375 
Q 18.3125 60.0625 18.3125 54.390625 
z
" id="DejaVuSans-56"/>
      </defs>
      <g transform="translate(408.993892 518.598438)scale(0.1 -0.1)">
       <use xlink:href="#DejaVuSans-48"/>
       <use x="63.623047" xlink:href="#DejaVuSans-46"/>
       <use x="95.410156" xlink:href="#DejaVuSans-56"/>
      </g>
     </g>
    </g>
    <g id="xtick_6">
     <g id="line2d_6">
      <g>
       <use style="stroke:#000000;stroke-width:0.8;" x="498.109091" xlink:href="#m19630b5ac1" y="504"/>
      </g>
     </g>
     <g id="text_6">
      <!-- 1.0 -->
      <defs>
       <path d="M 12.40625 8.296875 
L 28.515625 8.296875 
L 28.515625 63.921875 
L 10.984375 60.40625 
L 10.984375 69.390625 
L 28.421875 72.90625 
L 38.28125 72.90625 
L 38.28125 8.296875 
L 54.390625 8.296875 
L 54.390625 0 
L 12.40625 0 
z
" id="DejaVuSans-49"/>
      </defs>
      <g transform="translate(490.157528 518.598438)scale(0.1 -0.1)">
       <use xlink:href="#DejaVuSans-49"/>
       <use x="63.623047" xlink:href="#DejaVuSans-46"/>
       <use x="95.410156" xlink:href="#DejaVuSans-48"/>
      </g>
     </g>
    </g>
    <g id="text_7">
     <!-- Revision probability -->
     <defs>
      <path d="M 44.390625 34.1875 
Q 47.5625 33.109375 50.5625 29.59375 
Q 53.5625 26.078125 56.59375 19.921875 
L 66.609375 0 
L 56 0 
L 46.6875 18.703125 
Q 43.0625 26.03125 39.671875 28.421875 
Q 36.28125 30.8125 30.421875 30.8125 
L 19.671875 30.8125 
L 19.671875 0 
L 9.8125 0 
L 9.8125 72.90625 
L 32.078125 72.90625 
Q 44.578125 72.90625 50.734375 67.671875 
Q 56.890625 62.453125 56.890625 51.90625 
Q 56.890625 45.015625 53.6875 40.46875 
Q 50.484375 35.9375 44.390625 34.1875 
z
M 19.671875 64.796875 
L 19.671875 38.921875 
L 32.078125 38.921875 
Q 39.203125 38.921875 42.84375 42.21875 
Q 46.484375 45.515625 46.484375 51.90625 
Q 46.484375 58.296875 42.84375 61.546875 
Q 39.203125 64.796875 32.078125 64.796875 
z
" id="DejaVuSans-82"/>
      <path d="M 56.203125 29.59375 
L 56.203125 25.203125 
L 14.890625 25.203125 
Q 15.484375 15.921875 20.484375 11.0625 
Q 25.484375 6.203125 34.421875 6.203125 
Q 39.59375 6.203125 44.453125 7.46875 
Q 49.3125 8.734375 54.109375 11.28125 
L 54.109375 2.78125 
Q 49.265625 0.734375 44.1875 -0.34375 
Q 39.109375 -1.421875 33.890625 -1.421875 
Q 20.796875 -1.421875 13.15625 6.1875 
Q 5.515625 13.8125 5.515625 26.8125 
Q 5.515625 40.234375 12.765625 48.109375 
Q 20.015625 56 32.328125 56 
Q 43.359375 56 49.78125 48.890625 
Q 56.203125 41.796875 56.203125 29.59375 
z
M 47.21875 32.234375 
Q 47.125 39.59375 43.09375 43.984375 
Q 39.0625 48.390625 32.421875 48.390625 
Q 24.90625 48.390625 20.390625 44.140625 
Q 15.875 39.890625 15.1875 32.171875 
z
" id="DejaVuSans-101"/>
      <path d="M 2.984375 54.6875 
L 12.5 54.6875 
L 29.59375 8.796875 
L 46.6875 54.6875 
L 56.203125 54.6875 
L 35.6875 0 
L 23.484375 0 
z
" id="DejaVuSans-118"/>
      <path d="M 9.421875 54.6875 
L 18.40625 54.6875 
L 18.40625 0 
L 9.421875 0 
z
M 9.421875 75.984375 
L 18.40625 75.984375 
L 18.40625 64.59375 
L 9.421875 64.59375 
z
" id="DejaVuSans-105"/>
      <path d="M 44.28125 53.078125 
L 44.28125 44.578125 
Q 40.484375 46.53125 36.375 47.5 
Q 32.28125 48.484375 27.875 48.484375 
Q 21.1875 48.484375 17.84375 46.4375 
Q 14.5 44.390625 14.5 40.28125 
Q 14.5 37.15625 16.890625 35.375 
Q 19.28125 33.59375 26.515625 31.984375 
L 29.59375 31.296875 
Q 39.15625 29.25 43.1875 25.515625 
Q 47.21875 21.78125 47.21875 15.09375 
Q 47.21875 7.46875 41.1875 3.015625 
Q 35.15625 -1.421875 24.609375 -1.421875 
Q 20.21875 -1.421875 15.453125 -0.5625 
Q 10.6875 0.296875 5.421875 2 
L 5.421875 11.28125 
Q 10.40625 8.6875 15.234375 7.390625 
Q 20.0625 6.109375 24.8125 6.109375 
Q 31.15625 6.109375 34.5625 8.28125 
Q 37.984375 10.453125 37.984375 14.40625 
Q 37.984375 18.0625 35.515625 20.015625 
Q 33.0625 21.96875 24.703125 23.78125 
L 21.578125 24.515625 
Q 13.234375 26.265625 9.515625 29.90625 
Q 5.8125 33.546875 5.8125 39.890625 
Q 5.8125 47.609375 11.28125 51.796875 
Q 16.75 56 26.8125 56 
Q 31.78125 56 36.171875 55.265625 
Q 40.578125 54.546875 44.28125 53.078125 
z
" id="DejaVuSans-115"/>
      <path d="M 30.609375 48.390625 
Q 23.390625 48.390625 19.1875 42.75 
Q 14.984375 37.109375 14.984375 27.296875 
Q 14.984375 17.484375 19.15625 11.84375 
Q 23.34375 6.203125 30.609375 6.203125 
Q 37.796875 6.203125 41.984375 11.859375 
Q 46.1875 17.53125 46.1875 27.296875 
Q 46.1875 37.015625 41.984375 42.703125 
Q 37.796875 48.390625 30.609375 48.390625 
z
M 30.609375 56 
Q 42.328125 56 49.015625 48.375 
Q 55.71875 40.765625 55.71875 27.296875 
Q 55.71875 13.875 49.015625 6.21875 
Q 42.328125 -1.421875 30.609375 -1.421875 
Q 18.84375 -1.421875 12.171875 6.21875 
Q 5.515625 13.875 5.515625 27.296875 
Q 5.515625 40.765625 12.171875 48.375 
Q 18.84375 56 30.609375 56 
z
" id="DejaVuSans-111"/>
      <path d="M 54.890625 33.015625 
L 54.890625 0 
L 45.90625 0 
L 45.90625 32.71875 
Q 45.90625 40.484375 42.875 44.328125 
Q 39.84375 48.1875 33.796875 48.1875 
Q 26.515625 48.1875 22.3125 43.546875 
Q 18.109375 38.921875 18.109375 30.90625 
L 18.109375 0 
L 9.078125 0 
L 9.078125 54.6875 
L 18.109375 54.6875 
L 18.109375 46.1875 
Q 21.34375 51.125 25.703125 53.5625 
Q 30.078125 56 35.796875 56 
Q 45.21875 56 50.046875 50.171875 
Q 54.890625 44.34375 54.890625 33.015625 
z
" id="DejaVuSans-110"/>
      <path id="DejaVuSans-32"/>
      <path d="M 18.109375 8.203125 
L 18.109375 -20.796875 
L 9.078125 -20.796875 
L 9.078125 54.6875 
L 18.109375 54.6875 
L 18.109375 46.390625 
Q 20.953125 51.265625 25.265625 53.625 
Q 29.59375 56 35.59375 56 
Q 45.5625 56 51.78125 48.09375 
Q 58.015625 40.1875 58.015625 27.296875 
Q 58.015625 14.40625 51.78125 6.484375 
Q 45.5625 -1.421875 35.59375 -1.421875 
Q 29.59375 -1.421875 25.265625 0.953125 
Q 20.953125 3.328125 18.109375 8.203125 
z
M 48.6875 27.296875 
Q 48.6875 37.203125 44.609375 42.84375 
Q 40.53125 48.484375 33.40625 48.484375 
Q 26.265625 48.484375 22.1875 42.84375 
Q 18.109375 37.203125 18.109375 27.296875 
Q 18.109375 17.390625 22.1875 11.75 
Q 26.265625 6.109375 33.40625 6.109375 
Q 40.53125 6.109375 44.609375 11.75 
Q 48.6875 17.390625 48.6875 27.296875 
z
" id="DejaVuSans-112"/>
      <path d="M 41.109375 46.296875 
Q 39.59375 47.171875 37.8125 47.578125 
Q 36.03125 48 33.890625 48 
Q 26.265625 48 22.1875 43.046875 
Q 18.109375 38.09375 18.109375 28.8125 
L 18.109375 0 
L 9.078125 0 
L 9.078125 54.6875 
L 18.109375 54.6875 
L 18.109375 46.1875 
Q 20.953125 51.171875 25.484375 53.578125 
Q 30.03125 56 36.53125 56 
Q 37.453125 56 38.578125 55.875 
Q 39.703125 55.765625 41.0625 55.515625 
z
" id="DejaVuSans-114"/>
      <path d="M 48.6875 27.296875 
Q 48.6875 37.203125 44.609375 42.84375 
Q 40.53125 48.484375 33.40625 48.484375 
Q 26.265625 48.484375 22.1875 42.84375 
Q 18.109375 37.203125 18.109375 27.296875 
Q 18.109375 17.390625 22.1875 11.75 
Q 26.265625 6.109375 33.40625 6.109375 
Q 40.53125 6.109375 44.609375 11.75 
Q 48.6875 17.390625 48.6875 27.296875 
z
M 18.109375 46.390625 
Q 20.953125 51.265625 25.265625 53.625 
Q 29.59375 56 35.59375 56 
Q 45.5625 56 51.78125 48.09375 
Q 58.015625 40.1875 58.015625 27.296875 
Q 58.015625 14.40625 51.78125 6.484375 
Q 45.5625 -1.421875 35.59375 -1.421875 
Q 29.59375 -1.421875 25.265625 0.953125 
Q 20.953125 3.328125 18.109375 8.203125 
L 18.109375 0 
L 9.078125 0 
L 9.078125 75.984375 
L 18.109375 75.984375 
z
" id="DejaVuSans-98"/>
      <path d="M 34.28125 27.484375 
Q 23.390625 27.484375 19.1875 25 
Q 14.984375 22.515625 14.984375 16.5 
Q 14.984375 11.71875 18.140625 8.90625 
Q 21.296875 6.109375 26.703125 6.109375 
Q 34.1875 6.109375 38.703125 11.40625 
Q 43.21875 16.703125 43.21875 25.484375 
L 43.21875 27.484375 
z
M 52.203125 31.203125 
L 52.203125 0 
L 43.21875 0 
L 43.21875 8.296875 
Q 40.140625 3.328125 35.546875 0.953125 
Q 30.953125 -1.421875 24.3125 -1.421875 
Q 15.921875 -1.421875 10.953125 3.296875 
Q 6 8.015625 6 15.921875 
Q 6 25.140625 12.171875 29.828125 
Q 18.359375 34.515625 30.609375 34.515625 
L 43.21875 34.515625 
L 43.21875 35.40625 
Q 43.21875 41.609375 39.140625 45 
Q 35.0625 48.390625 27.6875 48.390625 
Q 23 48.390625 18.546875 47.265625 
Q 14.109375 46.140625 10.015625 43.890625 
L 10.015625 52.203125 
Q 14.9375 54.109375 19.578125 55.046875 
Q 24.21875 56 28.609375 56 
Q 40.484375 56 46.34375 49.84375 
Q 52.203125 43.703125 52.203125 31.203125 
z
" id="DejaVuSans-97"/>
      <path d="M 9.421875 75.984375 
L 18.40625 75.984375 
L 18.40625 0 
L 9.421875 0 
z
" id="DejaVuSans-108"/>
      <path d="M 18.3125 70.21875 
L 18.3125 54.6875 
L 36.8125 54.6875 
L 36.8125 47.703125 
L 18.3125 47.703125 
L 18.3125 18.015625 
Q 18.3125 11.328125 20.140625 9.421875 
Q 21.96875 7.515625 27.59375 7.515625 
L 36.8125 7.515625 
L 36.8125 0 
L 27.59375 0 
Q 17.1875 0 13.234375 3.875 
Q 9.28125 7.765625 9.28125 18.015625 
L 9.28125 47.703125 
L 2.6875 47.703125 
L 2.6875 54.6875 
L 9.28125 54.6875 
L 9.28125 70.21875 
z
" id="DejaVuSans-116"/>
      <path d="M 32.171875 -5.078125 
Q 28.375 -14.84375 24.75 -17.8125 
Q 21.140625 -20.796875 15.09375 -20.796875 
L 7.90625 -20.796875 
L 7.90625 -13.28125 
L 13.1875 -13.28125 
Q 16.890625 -13.28125 18.9375 -11.515625 
Q 21 -9.765625 23.484375 -3.21875 
L 25.09375 0.875 
L 2.984375 54.6875 
L 12.5 54.6875 
L 29.59375 11.921875 
L 46.6875 54.6875 
L 56.203125 54.6875 
z
" id="DejaVuSans-121"/>
     </defs>
     <g transform="translate(245.70625 532.276562)scale(0.1 -0.1)">
      <use xlink:href="#DejaVuSans-82"/>
      <use x="69.419922" xlink:href="#DejaVuSans-101"/>
      <use x="130.943359" xlink:href="#DejaVuSans-118"/>
      <use x="190.123047" xlink:href="#DejaVuSans-105"/>
      <use x="217.90625" xlink:href="#DejaVuSans-115"/>
      <use x="270.005859" xlink:href="#DejaVuSans-105"/>
      <use x="297.789062" xlink:href="#DejaVuSans-111"/>
      <use x="358.970703" xlink:href="#DejaVuSans-110"/>
      <use x="422.349609" xlink:href="#DejaVuSans-32"/>
      <use x="454.136719" xlink:href="#DejaVuSans-112"/>
      <use x="517.613281" xlink:href="#DejaVuSans-114"/>
      <use x="558.695312" xlink:href="#DejaVuSans-111"/>
      <use x="619.876953" xlink:href="#DejaVuSans-98"/>
      <use x="683.353516" xlink:href="#DejaVuSans-97"/>
      <use x="744.632812" xlink:href="#DejaVuSans-98"/>
      <use x="808.109375" xlink:href="#DejaVuSans-105"/>
      <use x="835.892578" xlink:href="#DejaVuSans-108"/>
      <use x="863.675781" xlink:href="#DejaVuSans-105"/>
      <use x="891.458984" xlink:href="#DejaVuSans-116"/>
      <use x="930.667969" xlink:href="#DejaVuSans-121"/>
     </g>
    </g>
   </g>
   <g id="matplotlib.axis_2">
    <g id="ytick_1">
     <g id="line2d_7">
      <defs>
       <path d="M 0 0 
L -3.5 0 
" id="ma48b59259a" style="stroke:#000000;stroke-width:0.8;"/>
      </defs>
      <g>
       <use style="stroke:#000000;stroke-width:0.8;" x="72" xlink:href="#ma48b59259a" y="504"/>
      </g>
     </g>
     <g id="text_8">
      <!-- 0.00 -->
      <g transform="translate(42.734375 507.799219)scale(0.1 -0.1)">
       <use xlink:href="#DejaVuSans-48"/>
       <use x="63.623047" xlink:href="#DejaVuSans-46"/>
       <use x="95.410156" xlink:href="#DejaVuSans-48"/>
       <use x="159.033203" xlink:href="#DejaVuSans-48"/>
      </g>
     </g>
    </g>
    <g id="ytick_2">
     <g id="line2d_8">
      <g>
       <use style="stroke:#000000;stroke-width:0.8;" x="72" xlink:href="#ma48b59259a" y="441.550346"/>
      </g>
     </g>
     <g id="text_9">
      <!-- 0.05 -->
      <defs>
       <path d="M 10.796875 72.90625 
L 49.515625 72.90625 
L 49.515625 64.59375 
L 19.828125 64.59375 
L 19.828125 46.734375 
Q 21.96875 47.46875 24.109375 47.828125 
Q 26.265625 48.1875 28.421875 48.1875 
Q 40.625 48.1875 47.75 41.5 
Q 54.890625 34.8125 54.890625 23.390625 
Q 54.890625 11.625 47.5625 5.09375 
Q 40.234375 -1.421875 26.90625 -1.421875 
Q 22.3125 -1.421875 17.546875 -0.640625 
Q 12.796875 0.140625 7.71875 1.703125 
L 7.71875 11.625 
Q 12.109375 9.234375 16.796875 8.0625 
Q 21.484375 6.890625 26.703125 6.890625 
Q 35.15625 6.890625 40.078125 11.328125 
Q 45.015625 15.765625 45.015625 23.390625 
Q 45.015625 31 40.078125 35.4375 
Q 35.15625 39.890625 26.703125 39.890625 
Q 22.75 39.890625 18.8125 39.015625 
Q 14.890625 38.140625 10.796875 36.28125 
z
" id="DejaVuSans-53"/>
      </defs>
      <g transform="translate(42.734375 445.349565)scale(0.1 -0.1)">
       <use xlink:href="#DejaVuSans-48"/>
       <use x="63.623047" xlink:href="#DejaVuSans-46"/>
       <use x="95.410156" xlink:href="#DejaVuSans-48"/>
       <use x="159.033203" xlink:href="#DejaVuSans-53"/>
      </g>
     </g>
    </g>
    <g id="ytick_3">
     <g id="line2d_9">
      <g>
       <use style="stroke:#000000;stroke-width:0.8;" x="72" xlink:href="#ma48b59259a" y="379.100692"/>
      </g>
     </g>
     <g id="text_10">
      <!-- 0.10 -->
      <g transform="translate(42.734375 382.899911)scale(0.1 -0.1)">
       <use xlink:href="#DejaVuSans-48"/>
       <use x="63.623047" xlink:href="#DejaVuSans-46"/>
       <use x="95.410156" xlink:href="#DejaVuSans-49"/>
       <use x="159.033203" xlink:href="#DejaVuSans-48"/>
      </g>
     </g>
    </g>
    <g id="ytick_4">
     <g id="line2d_10">
      <g>
       <use style="stroke:#000000;stroke-width:0.8;" x="72" xlink:href="#ma48b59259a" y="316.651039"/>
      </g>
     </g>
     <g id="text_11">
      <!-- 0.15 -->
      <g transform="translate(42.734375 320.450257)scale(0.1 -0.1)">
       <use xlink:href="#DejaVuSans-48"/>
       <use x="63.623047" xlink:href="#DejaVuSans-46"/>
       <use x="95.410156" xlink:href="#DejaVuSans-49"/>
       <use x="159.033203" xlink:href="#DejaVuSans-53"/>
      </g>
     </g>
    </g>
    <g id="ytick_5">
     <g id="line2d_11">
      <g>
       <use style="stroke:#000000;stroke-width:0.8;" x="72" xlink:href="#ma48b59259a" y="254.201385"/>
      </g>
     </g>
     <g id="text_12">
      <!-- 0.20 -->
      <g transform="translate(42.734375 258.000603)scale(0.1 -0.1)">
       <use xlink:href="#DejaVuSans-48"/>
       <use x="63.623047" xlink:href="#DejaVuSans-46"/>
       <use x="95.410156" xlink:href="#DejaVuSans-50"/>
       <use x="159.033203" xlink:href="#DejaVuSans-48"/>
      </g>
     </g>
    </g>
    <g id="ytick_6">
     <g id="line2d_12">
      <g>
       <use style="stroke:#000000;stroke-width:0.8;" x="72" xlink:href="#ma48b59259a" y="191.751731"/>
      </g>
     </g>
     <g id="text_13">
      <!-- 0.25 -->
      <g transform="translate(42.734375 195.55095)scale(0.1 -0.1)">
       <use xlink:href="#DejaVuSans-48"/>
       <use x="63.623047" xlink:href="#DejaVuSans-46"/>
       <use x="95.410156" xlink:href="#DejaVuSans-50"/>
       <use x="159.033203" xlink:href="#DejaVuSans-53"/>
      </g>
     </g>
    </g>
    <g id="ytick_7">
     <g id="line2d_13">
      <g>
       <use style="stroke:#000000;stroke-width:0.8;" x="72" xlink:href="#ma48b59259a" y="129.302077"/>
      </g>
     </g>
     <g id="text_14">
      <!-- 0.30 -->
      <defs>
       <path d="M 40.578125 39.3125 
Q 47.65625 37.796875 51.625 33 
Q 55.609375 28.21875 55.609375 21.1875 
Q 55.609375 10.40625 48.1875 4.484375 
Q 40.765625 -1.421875 27.09375 -1.421875 
Q 22.515625 -1.421875 17.65625 -0.515625 
Q 12.796875 0.390625 7.625 2.203125 
L 7.625 11.71875 
Q 11.71875 9.328125 16.59375 8.109375 
Q 21.484375 6.890625 26.8125 6.890625 
Q 36.078125 6.890625 40.9375 10.546875 
Q 45.796875 14.203125 45.796875 21.1875 
Q 45.796875 27.640625 41.28125 31.265625 
Q 36.765625 34.90625 28.71875 34.90625 
L 20.21875 34.90625 
L 20.21875 43.015625 
L 29.109375 43.015625 
Q 36.375 43.015625 40.234375 45.921875 
Q 44.09375 48.828125 44.09375 54.296875 
Q 44.09375 59.90625 40.109375 62.90625 
Q 36.140625 65.921875 28.71875 65.921875 
Q 24.65625 65.921875 20.015625 65.03125 
Q 15.375 64.15625 9.8125 62.3125 
L 9.8125 71.09375 
Q 15.4375 72.65625 20.34375 73.4375 
Q 25.25 74.21875 29.59375 74.21875 
Q 40.828125 74.21875 47.359375 69.109375 
Q 53.90625 64.015625 53.90625 55.328125 
Q 53.90625 49.265625 50.4375 45.09375 
Q 46.96875 40.921875 40.578125 39.3125 
z
" id="DejaVuSans-51"/>
      </defs>
      <g transform="translate(42.734375 133.101296)scale(0.1 -0.1)">
       <use xlink:href="#DejaVuSans-48"/>
       <use x="63.623047" xlink:href="#DejaVuSans-46"/>
       <use x="95.410156" xlink:href="#DejaVuSans-51"/>
       <use x="159.033203" xlink:href="#DejaVuSans-48"/>
      </g>
     </g>
    </g>
    <g id="text_15">
     <!-- Frequency of estimations -->
     <defs>
      <path d="M 9.8125 72.90625 
L 51.703125 72.90625 
L 51.703125 64.59375 
L 19.671875 64.59375 
L 19.671875 43.109375 
L 48.578125 43.109375 
L 48.578125 34.8125 
L 19.671875 34.8125 
L 19.671875 0 
L 9.8125 0 
z
" id="DejaVuSans-70"/>
      <path d="M 14.796875 27.296875 
Q 14.796875 17.390625 18.875 11.75 
Q 22.953125 6.109375 30.078125 6.109375 
Q 37.203125 6.109375 41.296875 11.75 
Q 45.40625 17.390625 45.40625 27.296875 
Q 45.40625 37.203125 41.296875 42.84375 
Q 37.203125 48.484375 30.078125 48.484375 
Q 22.953125 48.484375 18.875 42.84375 
Q 14.796875 37.203125 14.796875 27.296875 
z
M 45.40625 8.203125 
Q 42.578125 3.328125 38.25 0.953125 
Q 33.9375 -1.421875 27.875 -1.421875 
Q 17.96875 -1.421875 11.734375 6.484375 
Q 5.515625 14.40625 5.515625 27.296875 
Q 5.515625 40.1875 11.734375 48.09375 
Q 17.96875 56 27.875 56 
Q 33.9375 56 38.25 53.625 
Q 42.578125 51.265625 45.40625 46.390625 
L 45.40625 54.6875 
L 54.390625 54.6875 
L 54.390625 -20.796875 
L 45.40625 -20.796875 
z
" id="DejaVuSans-113"/>
      <path d="M 8.5 21.578125 
L 8.5 54.6875 
L 17.484375 54.6875 
L 17.484375 21.921875 
Q 17.484375 14.15625 20.5 10.265625 
Q 23.53125 6.390625 29.59375 6.390625 
Q 36.859375 6.390625 41.078125 11.03125 
Q 45.3125 15.671875 45.3125 23.6875 
L 45.3125 54.6875 
L 54.296875 54.6875 
L 54.296875 0 
L 45.3125 0 
L 45.3125 8.40625 
Q 42.046875 3.421875 37.71875 1 
Q 33.40625 -1.421875 27.6875 -1.421875 
Q 18.265625 -1.421875 13.375 4.4375 
Q 8.5 10.296875 8.5 21.578125 
z
M 31.109375 56 
z
" id="DejaVuSans-117"/>
      <path d="M 48.78125 52.59375 
L 48.78125 44.1875 
Q 44.96875 46.296875 41.140625 47.34375 
Q 37.3125 48.390625 33.40625 48.390625 
Q 24.65625 48.390625 19.8125 42.84375 
Q 14.984375 37.3125 14.984375 27.296875 
Q 14.984375 17.28125 19.8125 11.734375 
Q 24.65625 6.203125 33.40625 6.203125 
Q 37.3125 6.203125 41.140625 7.25 
Q 44.96875 8.296875 48.78125 10.40625 
L 48.78125 2.09375 
Q 45.015625 0.34375 40.984375 -0.53125 
Q 36.96875 -1.421875 32.421875 -1.421875 
Q 20.0625 -1.421875 12.78125 6.34375 
Q 5.515625 14.109375 5.515625 27.296875 
Q 5.515625 40.671875 12.859375 48.328125 
Q 20.21875 56 33.015625 56 
Q 37.15625 56 41.109375 55.140625 
Q 45.0625 54.296875 48.78125 52.59375 
z
" id="DejaVuSans-99"/>
      <path d="M 37.109375 75.984375 
L 37.109375 68.5 
L 28.515625 68.5 
Q 23.6875 68.5 21.796875 66.546875 
Q 19.921875 64.59375 19.921875 59.515625 
L 19.921875 54.6875 
L 34.71875 54.6875 
L 34.71875 47.703125 
L 19.921875 47.703125 
L 19.921875 0 
L 10.890625 0 
L 10.890625 47.703125 
L 2.296875 47.703125 
L 2.296875 54.6875 
L 10.890625 54.6875 
L 10.890625 58.5 
Q 10.890625 67.625 15.140625 71.796875 
Q 19.390625 75.984375 28.609375 75.984375 
z
" id="DejaVuSans-102"/>
      <path d="M 52 44.1875 
Q 55.375 50.25 60.0625 53.125 
Q 64.75 56 71.09375 56 
Q 79.640625 56 84.28125 50.015625 
Q 88.921875 44.046875 88.921875 33.015625 
L 88.921875 0 
L 79.890625 0 
L 79.890625 32.71875 
Q 79.890625 40.578125 77.09375 44.375 
Q 74.3125 48.1875 68.609375 48.1875 
Q 61.625 48.1875 57.5625 43.546875 
Q 53.515625 38.921875 53.515625 30.90625 
L 53.515625 0 
L 44.484375 0 
L 44.484375 32.71875 
Q 44.484375 40.625 41.703125 44.40625 
Q 38.921875 48.1875 33.109375 48.1875 
Q 26.21875 48.1875 22.15625 43.53125 
Q 18.109375 38.875 18.109375 30.90625 
L 18.109375 0 
L 9.078125 0 
L 9.078125 54.6875 
L 18.109375 54.6875 
L 18.109375 46.1875 
Q 21.1875 51.21875 25.484375 53.609375 
Q 29.78125 56 35.6875 56 
Q 41.65625 56 45.828125 52.96875 
Q 50 49.953125 52 44.1875 
z
" id="DejaVuSans-109"/>
     </defs>
     <g transform="translate(36.654687 350.002187)rotate(-90)scale(0.1 -0.1)">
      <use xlink:href="#DejaVuSans-70"/>
      <use x="57.410156" xlink:href="#DejaVuSans-114"/>
      <use x="98.492188" xlink:href="#DejaVuSans-101"/>
      <use x="160.015625" xlink:href="#DejaVuSans-113"/>
      <use x="223.492188" xlink:href="#DejaVuSans-117"/>
      <use x="286.871094" xlink:href="#DejaVuSans-101"/>
      <use x="348.394531" xlink:href="#DejaVuSans-110"/>
      <use x="411.773438" xlink:href="#DejaVuSans-99"/>
      <use x="466.753906" xlink:href="#DejaVuSans-121"/>
      <use x="525.933594" xlink:href="#DejaVuSans-32"/>
      <use x="557.720703" xlink:href="#DejaVuSans-111"/>
      <use x="618.902344" xlink:href="#DejaVuSans-102"/>
      <use x="654.107422" xlink:href="#DejaVuSans-32"/>
      <use x="685.894531" xlink:href="#DejaVuSans-101"/>
      <use x="747.417969" xlink:href="#DejaVuSans-115"/>
      <use x="799.517578" xlink:href="#DejaVuSans-116"/>
      <use x="838.726562" xlink:href="#DejaVuSans-105"/>
      <use x="866.509766" xlink:href="#DejaVuSans-109"/>
      <use x="963.921875" xlink:href="#DejaVuSans-97"/>
      <use x="1025.201172" xlink:href="#DejaVuSans-116"/>
      <use x="1064.410156" xlink:href="#DejaVuSans-105"/>
      <use x="1092.193359" xlink:href="#DejaVuSans-111"/>
      <use x="1153.375" xlink:href="#DejaVuSans-110"/>
      <use x="1216.753906" xlink:href="#DejaVuSans-115"/>
     </g>
    </g>
   </g>
   <g id="line2d_14">
    <path clip-path="url(#pe78f748490)" d="M 92.290909 454.415151 
L 94.330196 452.593848 
L 96.369484 450.941083 
L 98.408771 449.467538 
L 100.448058 448.180633 
L 102.487346 447.084505 
L 104.526633 446.180107 
L 106.565921 445.465403 
L 108.605208 444.935652 
L 110.644495 444.583758 
L 112.683783 444.400674 
L 114.72307 444.375833 
L 116.762357 444.49758 
L 118.801645 444.7536 
L 122.880219 445.618198 
L 126.958794 446.871552 
L 131.037369 448.424592 
L 135.115943 450.201467 
L 141.233805 453.154027 
L 149.390955 457.384364 
L 161.626679 463.767225 
L 167.744541 466.742359 
L 173.862403 469.454743 
L 179.980265 471.847711 
L 186.098127 473.89755 
L 192.215989 475.610934 
L 198.333851 477.016278 
L 204.451713 478.152878 
L 210.569575 479.061731 
L 216.687437 479.780296 
L 224.844587 480.498501 
L 235.041023 481.10711 
L 247.276747 481.576409 
L 269.708908 482.156895 
L 286.023207 482.402239 
L 300.298218 482.390174 
L 314.57323 482.155039 
L 332.926816 481.618705 
L 349.241115 480.93381 
L 361.476839 480.221625 
L 373.712563 479.307028 
L 392.066149 477.678795 
L 406.34116 476.257393 
L 412.459022 475.494928 
L 418.576884 474.483857 
L 422.655459 473.573476 
L 426.734034 472.377837 
L 430.812608 470.791562 
L 432.851896 469.813721 
L 434.891183 468.690369 
L 436.930471 467.403891 
L 438.969758 465.936425 
L 441.009045 464.270312 
L 443.048333 462.388637 
L 445.08762 460.275866 
L 447.126907 457.918548 
L 449.166195 455.306093 
L 451.205482 452.431591 
L 453.244769 449.292646 
L 455.284057 445.892193 
L 457.323344 442.239271 
L 461.401919 434.246569 
L 465.480493 425.530665 
L 475.67693 403.076567 
L 477.716217 398.978265 
L 479.755505 395.178488 
L 481.794792 391.750186 
L 483.834079 388.763339 
L 485.873367 386.28288 
L 487.912654 384.366692 
L 489.951942 383.063737 
L 491.991229 382.41241 
L 494.030516 382.439194 
L 496.069804 383.157675 
L 498.109091 384.567961 
L 498.109091 384.567961 
" style="fill:none;stroke:#d9454a;stroke-linecap:square;stroke-width:1.5;"/>
   </g>
   <g id="line2d_15">
    <path clip-path="url(#pe78f748490)" d="M 93.379593 493.539951 
L 97.447227 493.000038 
L 101.51486 492.756193 
L 105.582493 492.798071 
L 109.650126 493.084416 
L 115.751576 493.829548 
L 129.988292 495.817817 
L 136.089741 496.402539 
L 142.191191 496.775244 
L 150.326457 497.022088 
L 160.49554 497.093923 
L 172.69844 496.968354 
L 186.935156 496.572753 
L 197.104239 496.109093 
L 205.239505 495.533141 
L 211.340955 494.906609 
L 217.442404 494.072141 
L 223.543854 493.025992 
L 231.67912 491.363726 
L 256.084919 486.040414 
L 264.220185 484.595941 
L 272.355452 483.402594 
L 282.524534 482.178346 
L 300.828884 480.039136 
L 308.96415 478.833576 
L 315.0656 477.711771 
L 319.133233 476.80684 
L 323.200866 475.729861 
L 327.268499 474.435372 
L 331.336132 472.879872 
L 335.403765 471.031073 
L 339.471398 468.87825 
L 343.539032 466.441443 
L 349.640481 462.386755 
L 359.809564 455.454539 
L 363.877197 452.979728 
L 367.94483 450.813183 
L 372.012464 448.969624 
L 376.080097 447.38203 
L 382.181546 445.120069 
L 386.24918 443.331626 
L 388.282996 442.244431 
L 390.316813 440.97964 
L 392.350629 439.50355 
L 394.384446 437.787019 
L 396.418262 435.807232 
L 398.452079 433.549368 
L 400.485896 431.008066 
L 402.519712 428.188608 
L 404.553529 425.107743 
L 408.621162 418.287948 
L 418.790245 399.97847 
L 420.824061 396.674612 
L 422.857878 393.670404 
L 424.891694 391.03601 
L 426.925511 388.832321 
L 428.959328 387.108051 
L 430.993144 385.897237 
L 433.026961 385.217272 
L 435.060777 385.067612 
L 437.094594 385.429201 
L 439.12841 386.264696 
L 441.162227 387.519469 
L 443.196044 389.123386 
L 445.22986 390.993259 
L 453.365126 399.195189 
L 455.398943 400.926777 
L 457.43276 402.347303 
L 459.466576 403.384004 
L 461.500393 403.980456 
L 463.534209 404.099277 
L 465.568026 403.724173 
L 467.601842 402.861232 
L 469.635659 401.5394 
L 471.669475 399.810066 
L 473.703292 397.745753 
L 477.770925 392.993801 
L 481.838558 388.181598 
L 483.872375 386.069743 
L 485.906191 384.323965 
L 487.940008 383.063159 
L 489.973825 382.39332 
L 492.007641 382.403015 
L 494.041458 383.159571 
L 496.075274 384.706216 
L 498.109091 387.060303 
L 498.109091 387.060303 
" style="fill:none;stroke:#3c96a0;stroke-linecap:square;stroke-width:1.5;"/>
   </g>
   <g id="patch_3">
    <path d="M 72 504 
L 72 69.12 
" style="fill:none;stroke:#000000;stroke-linecap:square;stroke-linejoin:miter;stroke-width:0.8;"/>
   </g>
   <g id="patch_4">
    <path d="M 518.4 504 
L 518.4 69.12 
" style="fill:none;stroke:#000000;stroke-linecap:square;stroke-linejoin:miter;stroke-width:0.8;"/>
   </g>
   <g id="patch_5">
    <path d="M 72 504 
L 518.4 504 
" style="fill:none;stroke:#000000;stroke-linecap:square;stroke-linejoin:miter;stroke-width:0.8;"/>
   </g>
   <g id="patch_6">
    <path d="M 72 69.12 
L 518.4 69.12 
" style="fill:none;stroke:#000000;stroke-linecap:square;stroke-linejoin:miter;stroke-width:0.8;"/>
   </g>
   <g id="legend_1">
    <g id="patch_7">
     <path d="M 79 106.47625 
L 235.33125 106.47625 
Q 237.33125 106.47625 237.33125 104.47625 
L 237.33125 76.12 
Q 237.33125 74.12 235.33125 74.12 
L 79 74.12 
Q 77 74.12 77 76.12 
L 77 104.47625 
Q 77 106.47625 79 106.47625 
z
" style="fill:#ffffff;opacity:0.8;stroke:#cccccc;stroke-linejoin:miter;"/>
    </g>
    <g id="patch_8">
     <path d="M 81 85.718437 
L 101 85.718437 
L 101 78.718437 
L 81 78.718437 
z
" style="fill:#d9454a;fill-opacity:0.5;stroke:#d9454a;stroke-linejoin:miter;"/>
    </g>
    <g id="text_16">
     <!-- Negative revision events -->
     <defs>
      <path d="M 9.8125 72.90625 
L 23.09375 72.90625 
L 55.421875 11.921875 
L 55.421875 72.90625 
L 64.984375 72.90625 
L 64.984375 0 
L 51.703125 0 
L 19.390625 60.984375 
L 19.390625 0 
L 9.8125 0 
z
" id="DejaVuSans-78"/>
      <path d="M 45.40625 27.984375 
Q 45.40625 37.75 41.375 43.109375 
Q 37.359375 48.484375 30.078125 48.484375 
Q 22.859375 48.484375 18.828125 43.109375 
Q 14.796875 37.75 14.796875 27.984375 
Q 14.796875 18.265625 18.828125 12.890625 
Q 22.859375 7.515625 30.078125 7.515625 
Q 37.359375 7.515625 41.375 12.890625 
Q 45.40625 18.265625 45.40625 27.984375 
z
M 54.390625 6.78125 
Q 54.390625 -7.171875 48.1875 -13.984375 
Q 42 -20.796875 29.203125 -20.796875 
Q 24.46875 -20.796875 20.265625 -20.09375 
Q 16.0625 -19.390625 12.109375 -17.921875 
L 12.109375 -9.1875 
Q 16.0625 -11.328125 19.921875 -12.34375 
Q 23.78125 -13.375 27.78125 -13.375 
Q 36.625 -13.375 41.015625 -8.765625 
Q 45.40625 -4.15625 45.40625 5.171875 
L 45.40625 9.625 
Q 42.625 4.78125 38.28125 2.390625 
Q 33.9375 0 27.875 0 
Q 17.828125 0 11.671875 7.65625 
Q 5.515625 15.328125 5.515625 27.984375 
Q 5.515625 40.671875 11.671875 48.328125 
Q 17.828125 56 27.875 56 
Q 33.9375 56 38.28125 53.609375 
Q 42.625 51.21875 45.40625 46.390625 
L 45.40625 54.6875 
L 54.390625 54.6875 
z
" id="DejaVuSans-103"/>
     </defs>
     <g transform="translate(109 85.718437)scale(0.1 -0.1)">
      <use xlink:href="#DejaVuSans-78"/>
      <use x="74.804688" xlink:href="#DejaVuSans-101"/>
      <use x="136.328125" xlink:href="#DejaVuSans-103"/>
      <use x="199.804688" xlink:href="#DejaVuSans-97"/>
      <use x="261.083984" xlink:href="#DejaVuSans-116"/>
      <use x="300.292969" xlink:href="#DejaVuSans-105"/>
      <use x="328.076172" xlink:href="#DejaVuSans-118"/>
      <use x="387.255859" xlink:href="#DejaVuSans-101"/>
      <use x="448.779297" xlink:href="#DejaVuSans-32"/>
      <use x="480.566406" xlink:href="#DejaVuSans-114"/>
      <use x="521.648438" xlink:href="#DejaVuSans-101"/>
      <use x="583.171875" xlink:href="#DejaVuSans-118"/>
      <use x="642.351562" xlink:href="#DejaVuSans-105"/>
      <use x="670.134766" xlink:href="#DejaVuSans-115"/>
      <use x="722.234375" xlink:href="#DejaVuSans-105"/>
      <use x="750.017578" xlink:href="#DejaVuSans-111"/>
      <use x="811.199219" xlink:href="#DejaVuSans-110"/>
      <use x="874.578125" xlink:href="#DejaVuSans-32"/>
      <use x="906.365234" xlink:href="#DejaVuSans-101"/>
      <use x="967.888672" xlink:href="#DejaVuSans-118"/>
      <use x="1027.068359" xlink:href="#DejaVuSans-101"/>
      <use x="1088.591797" xlink:href="#DejaVuSans-110"/>
      <use x="1151.970703" xlink:href="#DejaVuSans-116"/>
      <use x="1191.179688" xlink:href="#DejaVuSans-115"/>
     </g>
    </g>
    <g id="patch_9">
     <path d="M 81 100.396563 
L 101 100.396563 
L 101 93.396563 
L 81 93.396563 
z
" style="fill:#3c96a0;fill-opacity:0.5;stroke:#3c96a0;stroke-linejoin:miter;"/>
    </g>
    <g id="text_17">
     <!-- Positive revision events -->
     <defs>
      <path d="M 19.671875 64.796875 
L 19.671875 37.40625 
L 32.078125 37.40625 
Q 38.96875 37.40625 42.71875 40.96875 
Q 46.484375 44.53125 46.484375 51.125 
Q 46.484375 57.671875 42.71875 61.234375 
Q 38.96875 64.796875 32.078125 64.796875 
z
M 9.8125 72.90625 
L 32.078125 72.90625 
Q 44.34375 72.90625 50.609375 67.359375 
Q 56.890625 61.8125 56.890625 51.125 
Q 56.890625 40.328125 50.609375 34.8125 
Q 44.34375 29.296875 32.078125 29.296875 
L 19.671875 29.296875 
L 19.671875 0 
L 9.8125 0 
z
" id="DejaVuSans-80"/>
     </defs>
     <g transform="translate(109 100.396563)scale(0.1 -0.1)">
      <use xlink:href="#DejaVuSans-80"/>
      <use x="60.255859" xlink:href="#DejaVuSans-111"/>
      <use x="121.4375" xlink:href="#DejaVuSans-115"/>
      <use x="173.537109" xlink:href="#DejaVuSans-105"/>
      <use x="201.320312" xlink:href="#DejaVuSans-116"/>
      <use x="240.529297" xlink:href="#DejaVuSans-105"/>
      <use x="268.3125" xlink:href="#DejaVuSans-118"/>
      <use x="327.492188" xlink:href="#DejaVuSans-101"/>
      <use x="389.015625" xlink:href="#DejaVuSans-32"/>
      <use x="420.802734" xlink:href="#DejaVuSans-114"/>
      <use x="461.884766" xlink:href="#DejaVuSans-101"/>
      <use x="523.408203" xlink:href="#DejaVuSans-118"/>
      <use x="582.587891" xlink:href="#DejaVuSans-105"/>
      <use x="610.371094" xlink:href="#DejaVuSans-115"/>
      <use x="662.470703" xlink:href="#DejaVuSans-105"/>
      <use x="690.253906" xlink:href="#DejaVuSans-111"/>
      <use x="751.435547" xlink:href="#DejaVuSans-110"/>
      <use x="814.814453" xlink:href="#DejaVuSans-32"/>
      <use x="846.601562" xlink:href="#DejaVuSans-101"/>
      <use x="908.125" xlink:href="#DejaVuSans-118"/>
      <use x="967.304688" xlink:href="#DejaVuSans-101"/>
      <use x="1028.828125" xlink:href="#DejaVuSans-110"/>
      <use x="1092.207031" xlink:href="#DejaVuSans-116"/>
      <use x="1131.416016" xlink:href="#DejaVuSans-115"/>
     </g>
    </g>
   </g>
  </g>
 </g>
 <defs>
  <clipPath id="pe78f748490">
   <rect height="434.88" width="446.4" x="72" y="69.12"/>
  </clipPath>
 </defs>
</svg>
